<svg width="123.867" height="24.083" viewBox="0 0 123.867 24.083" xmlns="http://www.w3.org/2000/svg"><g id="svgGroup" stroke-linecap="round" fill-rule="evenodd" font-size="9pt" stroke="#000" stroke-width="0" fill="#000" style="stroke:#000;stroke-width:0;fill:#000"><path d="M 36.826 12.246 L 36.826 13.067 A 212.934 212.934 0 0 1 36.812 15.571 A 19.073 19.073 0 0 1 36.621 18.047 A 144.034 144.034 0 0 0 36.567 18.514 Q 36.53 18.833 36.489 19.204 Q 36.416 19.863 36.27 20.508 A 5.345 5.345 0 0 1 35.896 21.604 A 4.95 4.95 0 0 1 35.845 21.709 A 2.15 2.15 0 0 1 35.548 22.16 A 1.692 1.692 0 0 1 35.098 22.529 Q 34.834 22.676 34.614 22.705 A 4.948 4.948 0 0 0 34.384 22.742 A 6.654 6.654 0 0 0 34.131 22.793 L 34.043 22.793 Q 33.369 22.793 32.9 22.339 A 3.311 3.311 0 0 1 32.419 21.745 A 4.427 4.427 0 0 1 32.109 21.167 A 7.329 7.329 0 0 1 31.766 20.227 A 9.196 9.196 0 0 1 31.597 19.556 Q 31.406 18.662 31.304 17.798 A 23.428 23.428 0 0 1 31.219 16.967 A 18.111 18.111 0 0 1 31.172 16.201 Q 31.149 15.641 31.144 15.252 A 16.502 16.502 0 0 1 31.143 15.029 A 21.535 21.535 0 0 1 31.146 14.653 Q 31.154 14.225 31.177 13.628 A 94.419 94.419 0 0 1 31.201 13.052 A 33.499 33.499 0 0 1 31.293 11.679 A 45.182 45.182 0 0 1 31.45 10.166 A 52.154 52.154 0 0 1 31.873 7.33 A 57.367 57.367 0 0 1 31.948 6.914 A 20.763 20.763 0 0 1 32.355 5.133 A 16.382 16.382 0 0 1 32.754 3.882 A 9.726 9.726 0 0 1 33.211 2.821 Q 33.549 2.155 33.955 1.655 A 2.721 2.721 0 0 1 34.466 1.163 A 1.884 1.884 0 0 1 35.596 0.791 A 2.2 2.2 0 0 1 37.016 1.31 A 2.956 2.956 0 0 1 37.222 1.494 A 7.38 7.38 0 0 1 38.198 2.683 A 8.73 8.73 0 0 1 38.496 3.164 Q 39.053 4.131 39.434 5.186 A 241.196 241.196 0 0 0 39.617 5.691 Q 39.872 6.393 40.065 6.909 A 82.334 82.334 0 0 0 40.078 6.943 Q 40.576 8.32 41.045 9.683 A 102.202 102.202 0 0 1 41.953 12.451 A 0.475 0.475 0 0 1 41.966 12.48 Q 41.999 12.559 42.07 12.774 A 19.757 19.757 0 0 0 42.166 13.052 A 27.059 27.059 0 0 0 42.275 13.36 A 11.913 11.913 0 0 0 42.398 13.708 Q 42.475 13.917 42.568 14.151 A 15.797 15.797 0 0 0 42.567 13.974 Q 42.565 13.729 42.554 13.609 A 3.795 3.795 0 0 1 42.543 13.455 A 2.792 2.792 0 0 1 42.539 13.316 L 42.539 12.979 L 42.539 12.334 A 127.718 127.718 0 0 1 42.495 10.401 A 125.719 125.719 0 0 1 42.48 8.496 A 30.36 30.36 0 0 1 42.481 8.271 Q 42.484 7.903 42.495 7.354 A 21.629 21.629 0 0 1 42.536 6.398 A 26.441 26.441 0 0 1 42.583 5.786 A 20.409 20.409 0 0 1 42.803 4.102 Q 42.949 3.252 43.228 2.564 A 4.095 4.095 0 0 1 43.521 1.973 A 3.032 3.032 0 0 1 43.931 1.436 A 1.387 1.387 0 0 1 44.932 0.997 A 1.698 1.698 0 0 1 44.971 0.996 A 1.666 1.666 0 0 1 46.189 1.51 A 2.169 2.169 0 0 1 46.23 1.553 A 3.966 3.966 0 0 1 46.767 2.275 A 5.374 5.374 0 0 1 47.109 2.974 Q 47.461 3.838 47.666 4.907 A 28.022 28.022 0 0 1 47.987 6.994 A 21.694 21.694 0 0 1 47.988 7.002 A 26.471 26.471 0 0 1 48.092 8.109 A 20.806 20.806 0 0 1 48.135 8.906 Q 48.157 9.579 48.162 10.029 A 21.873 21.873 0 0 1 48.164 10.283 A 19.098 19.098 0 0 1 48.16 10.639 Q 48.149 11.224 48.105 12.114 A 35.997 35.997 0 0 1 48.021 13.36 A 47.525 47.525 0 0 1 47.886 14.722 A 35.568 35.568 0 0 1 47.432 17.622 A 17.572 17.572 0 0 1 47.046 19.199 A 13.882 13.882 0 0 1 46.67 20.303 A 8.185 8.185 0 0 1 46.221 21.273 Q 45.906 21.844 45.527 22.28 A 2.41 2.41 0 0 1 44.942 22.779 A 1.97 1.97 0 0 1 43.916 23.057 A 2.749 2.749 0 0 1 42.305 22.544 A 6.137 6.137 0 0 1 41.06 21.377 A 6.874 6.874 0 0 1 40.986 21.284 Q 40.4 20.537 39.961 19.688 A 25.103 25.103 0 0 1 39.581 18.923 Q 39.409 18.56 39.268 18.229 A 15.083 15.083 0 0 1 39.229 18.135 A 300.468 300.468 0 0 0 37.998 15.191 A 71.038 71.038 0 0 1 36.826 12.246 Z M 83.994 14.59 L 82.236 15.674 Q 82.266 16.524 82.148 17.373 A 25.043 25.043 0 0 0 81.973 19.072 A 12.686 12.686 0 0 1 81.896 19.684 A 16.475 16.475 0 0 1 81.782 20.347 A 5.123 5.123 0 0 1 81.357 21.636 Q 81.064 22.236 80.566 22.647 Q 80.068 23.057 79.336 23.057 A 2.695 2.695 0 0 1 78.864 23.018 Q 78.589 22.969 78.366 22.859 A 1.542 1.542 0 0 1 78.223 22.778 Q 77.783 22.5 77.505 22.061 A 2.919 2.919 0 0 1 77.159 21.269 A 3.423 3.423 0 0 1 77.109 21.065 A 5.531 5.531 0 0 1 76.992 19.922 L 76.992 19.688 A 31.947 31.947 0 0 1 77.183 16.216 A 46.488 46.488 0 0 0 77.432 12.715 Q 77.49 10.401 77.578 8.086 Q 77.666 5.772 77.813 3.457 A 4.508 4.508 0 0 1 77.988 2.432 A 2.833 2.833 0 0 1 78.41 1.563 A 2.705 2.705 0 0 1 78.428 1.538 A 2.217 2.217 0 0 1 79.146 0.908 Q 79.57 0.674 80.156 0.674 A 2.025 2.025 0 0 1 80.715 0.747 A 1.442 1.442 0 0 1 81.519 1.318 A 3.628 3.628 0 0 1 81.977 2.227 A 4.694 4.694 0 0 1 82.148 2.871 A 9.067 9.067 0 0 1 82.311 4.598 A 9.795 9.795 0 0 1 82.31 4.746 A 168.429 168.429 0 0 0 82.303 5.209 Q 82.295 5.874 82.295 6.358 A 77.596 77.596 0 0 1 82.207 10.049 A 14.502 14.502 0 0 0 83.457 8.879 A 16.794 16.794 0 0 0 83.862 8.438 A 16.467 16.467 0 0 0 85.036 6.957 A 14.655 14.655 0 0 0 85.283 6.592 Q 85.647 6.061 86.117 5.143 A 26.91 26.91 0 0 0 86.162 5.054 Q 86.66 4.072 87.246 3.15 A 9.443 9.443 0 0 1 88.097 2.003 A 8.095 8.095 0 0 1 88.535 1.538 A 2.825 2.825 0 0 1 89.04 1.139 Q 89.492 0.864 89.977 0.85 A 1.809 1.809 0 0 1 90.029 0.85 Q 90.879 0.85 91.274 1.333 A 1.683 1.683 0 0 1 91.603 2.01 Q 91.67 2.283 91.67 2.608 A 8.145 8.145 0 0 1 91.446 4.474 A 9.475 9.475 0 0 1 91.304 5.01 Q 90.938 6.24 90.322 7.427 A 17.706 17.706 0 0 1 88.931 9.683 A 17.357 17.357 0 0 1 88.065 10.783 A 13.509 13.509 0 0 1 87.363 11.543 A 60.111 60.111 0 0 1 88.916 14.312 Q 89.648 15.703 90.381 17.11 Q 90.645 17.578 90.894 18.135 A 14.638 14.638 0 0 1 91.348 19.277 A 10.569 10.569 0 0 1 91.685 20.449 Q 91.816 21.035 91.816 21.563 A 2.682 2.682 0 0 1 91.759 22.135 Q 91.672 22.534 91.453 22.835 A 1.68 1.68 0 0 1 91.406 22.896 A 1.3 1.3 0 0 1 90.722 23.336 Q 90.465 23.408 90.146 23.408 A 2.09 2.09 0 0 1 88.901 22.998 A 5.238 5.238 0 0 1 88.062 22.241 A 6.088 6.088 0 0 1 87.847 21.987 Q 87.363 21.387 86.997 20.713 A 31.286 31.286 0 0 1 86.741 20.232 Q 86.617 19.995 86.514 19.784 A 15.591 15.591 0 0 1 86.396 19.541 A 286.851 286.851 0 0 1 85.181 17.08 A 147.318 147.318 0 0 1 83.994 14.59 Z M 123.51 9.781 A 7.477 7.477 0 0 0 123.867 7.442 A 9.91 9.91 0 0 0 123.867 7.356 A 8.889 8.889 0 0 0 123.486 4.819 A 7.425 7.425 0 0 0 123.424 4.627 A 6.482 6.482 0 0 0 122.344 2.622 Q 121.582 1.67 120.439 1.113 A 5.302 5.302 0 0 0 119.188 0.692 A 6.816 6.816 0 0 0 117.803 0.557 Q 117.363 0.557 116.586 0.697 A 19.891 19.891 0 0 0 116.03 0.806 A 18.918 18.918 0 0 0 115.433 0.941 A 21.361 21.361 0 0 0 113.599 1.48 Q 112.354 1.904 111.313 2.461 A 6.534 6.534 0 0 0 111.182 2.533 Q 110.603 2.861 110.279 3.208 A 1.699 1.699 0 0 0 109.98 3.633 A 1.32 1.32 0 0 0 109.904 3.799 Q 109.859 3.915 109.826 4.055 A 2.938 2.938 0 0 0 109.775 4.336 A 20.027 20.027 0 0 0 109.747 4.559 A 22.966 22.966 0 0 0 109.673 5.259 A 11.314 11.314 0 0 0 109.663 5.379 A 10.23 10.23 0 0 0 109.629 6.196 L 109.629 6.943 A 73.112 73.112 0 0 0 109.673 9.492 A 72.265 72.265 0 0 1 109.717 12.012 Q 109.717 13.389 109.658 14.722 Q 109.6 16.055 109.6 17.432 A 36.459 36.459 0 0 0 109.601 17.76 Q 109.605 18.151 109.616 18.67 A 128.885 128.885 0 0 0 109.629 19.204 Q 109.658 20.332 109.878 21.416 A 6.118 6.118 0 0 0 110.076 22.157 A 4.798 4.798 0 0 0 110.625 23.291 Q 110.942 23.767 111.418 23.957 A 1.879 1.879 0 0 0 112.119 24.082 A 1.471 1.471 0 0 0 113.118 23.72 A 1.926 1.926 0 0 0 113.496 23.262 A 5.6 5.6 0 0 0 113.92 22.398 A 7.281 7.281 0 0 0 114.243 21.328 Q 114.492 20.215 114.565 19.087 A 174.548 174.548 0 0 0 114.597 18.585 Q 114.646 17.808 114.668 17.315 A 24.891 24.891 0 0 0 115.693 16.89 Q 116.191 16.67 116.719 16.494 A 10.23 10.23 0 0 1 116.973 17.048 Q 117.239 17.669 117.524 18.516 Q 117.949 19.776 118.462 20.991 Q 118.975 22.207 119.634 23.086 A 2.739 2.739 0 0 0 120.002 23.491 A 1.758 1.758 0 0 0 121.201 23.965 A 2.497 2.497 0 0 0 121.747 23.909 A 1.487 1.487 0 0 0 122.739 23.218 Q 123.193 22.471 123.193 21.533 A 7.149 7.149 0 0 0 123.131 20.614 A 9.614 9.614 0 0 0 122.944 19.614 A 16.962 16.962 0 0 0 122.3 17.534 A 17.37 17.37 0 0 0 121.406 15.557 Q 120.908 14.619 120.439 13.916 A 11.403 11.403 0 0 0 120.631 13.761 A 10.022 10.022 0 0 0 122.93 11.074 A 6.723 6.723 0 0 0 123.51 9.781 Z M 29.195 18.988 A 8.322 8.322 0 0 0 29.209 18.516 A 29.13 29.13 0 0 0 28.945 14.605 A 62.122 62.122 0 0 0 28.301 10.752 Q 28.154 9.961 27.964 8.936 Q 27.773 7.91 27.495 6.841 A 18.33 18.33 0 0 0 26.807 4.732 A 8.922 8.922 0 0 0 26.645 4.348 A 7.733 7.733 0 0 0 25.781 2.871 A 5.795 5.795 0 0 0 25.684 2.745 A 5.051 5.051 0 0 0 24.346 1.553 A 3.309 3.309 0 0 0 23.391 1.164 A 4.201 4.201 0 0 0 22.412 1.055 A 3.846 3.846 0 0 0 20.332 1.641 Q 19.395 2.227 18.662 3.164 A 10.514 10.514 0 0 0 18.22 3.774 A 12.204 12.204 0 0 0 17.358 5.288 A 23.096 23.096 0 0 0 16.362 7.691 Q 15.938 8.906 15.645 10.049 Q 15.461 10.763 15.324 11.363 A 32.997 32.997 0 0 0 15.176 12.041 Q 14.824 13.652 14.561 15.278 A 20.557 20.557 0 0 0 14.297 18.574 Q 14.297 18.948 14.322 19.461 A 33.666 33.666 0 0 0 14.341 19.819 A 6.532 6.532 0 0 0 14.59 21.27 A 4.212 4.212 0 0 0 14.728 21.67 A 3.435 3.435 0 0 0 15.19 22.485 A 1.258 1.258 0 0 0 15.796 22.923 A 1.544 1.544 0 0 0 16.289 22.998 A 2.086 2.086 0 0 0 17.061 22.857 A 2.1 2.1 0 0 0 17.827 22.324 A 5.061 5.061 0 0 0 18.167 21.92 A 5.671 5.671 0 0 0 18.853 20.728 A 9.28 9.28 0 0 0 19.438 18.809 Q 19.56 18.171 19.628 17.665 A 11.397 11.397 0 0 0 19.688 17.139 Q 21.738 16.875 23.848 16.524 Q 23.87 17.029 23.9 17.798 A 660.754 660.754 0 0 1 23.921 18.34 A 13.143 13.143 0 0 0 24.199 20.581 A 6.168 6.168 0 0 0 24.418 21.362 A 4.792 4.792 0 0 0 24.976 22.471 A 1.723 1.723 0 0 0 25.924 23.169 A 2.346 2.346 0 0 0 26.602 23.262 A 2.335 2.335 0 0 0 26.927 23.24 A 1.665 1.665 0 0 0 27.92 22.749 A 3.408 3.408 0 0 0 28.291 22.294 A 4.036 4.036 0 0 0 28.711 21.489 Q 29.004 20.742 29.106 19.922 A 16.912 16.912 0 0 0 29.149 19.55 Q 29.18 19.251 29.195 18.988 Z M 64.878 18.988 A 8.322 8.322 0 0 0 64.893 18.516 A 29.13 29.13 0 0 0 64.629 14.605 A 62.122 62.122 0 0 0 63.984 10.752 Q 63.838 9.961 63.647 8.936 Q 63.457 7.91 63.179 6.841 A 18.33 18.33 0 0 0 62.49 4.732 A 8.922 8.922 0 0 0 62.329 4.348 A 7.733 7.733 0 0 0 61.465 2.871 A 5.795 5.795 0 0 0 61.367 2.745 A 5.051 5.051 0 0 0 60.029 1.553 A 3.309 3.309 0 0 0 59.075 1.164 A 4.201 4.201 0 0 0 58.096 1.055 A 3.846 3.846 0 0 0 56.016 1.641 Q 55.078 2.227 54.346 3.164 A 10.514 10.514 0 0 0 53.904 3.774 A 12.204 12.204 0 0 0 53.042 5.288 A 23.096 23.096 0 0 0 52.046 7.691 Q 51.621 8.906 51.328 10.049 Q 51.145 10.763 51.008 11.363 A 32.997 32.997 0 0 0 50.859 12.041 Q 50.508 13.652 50.244 15.278 A 20.557 20.557 0 0 0 49.98 18.574 Q 49.98 18.948 50.005 19.461 A 33.666 33.666 0 0 0 50.024 19.819 A 6.532 6.532 0 0 0 50.273 21.27 A 4.212 4.212 0 0 0 50.412 21.67 A 3.435 3.435 0 0 0 50.874 22.485 A 1.258 1.258 0 0 0 51.479 22.923 A 1.544 1.544 0 0 0 51.973 22.998 A 2.086 2.086 0 0 0 52.745 22.857 A 2.1 2.1 0 0 0 53.511 22.324 A 5.061 5.061 0 0 0 53.851 21.92 A 5.671 5.671 0 0 0 54.536 20.728 A 9.28 9.28 0 0 0 55.122 18.809 Q 55.244 18.171 55.312 17.665 A 11.397 11.397 0 0 0 55.371 17.139 Q 57.422 16.875 59.531 16.524 Q 59.553 17.029 59.583 17.798 A 660.754 660.754 0 0 1 59.604 18.34 A 13.143 13.143 0 0 0 59.883 20.581 A 6.168 6.168 0 0 0 60.102 21.362 A 4.792 4.792 0 0 0 60.659 22.471 A 1.723 1.723 0 0 0 61.607 23.169 A 2.346 2.346 0 0 0 62.285 23.262 A 2.335 2.335 0 0 0 62.611 23.24 A 1.665 1.665 0 0 0 63.604 22.749 A 3.408 3.408 0 0 0 63.974 22.294 A 4.036 4.036 0 0 0 64.395 21.489 Q 64.688 20.742 64.79 19.922 A 16.912 16.912 0 0 0 64.832 19.55 Q 64.863 19.251 64.878 18.988 Z M 107.652 18.988 A 8.322 8.322 0 0 0 107.666 18.516 A 29.13 29.13 0 0 0 107.402 14.605 A 62.122 62.122 0 0 0 106.758 10.752 Q 106.611 9.961 106.421 8.936 Q 106.23 7.91 105.952 6.841 A 18.33 18.33 0 0 0 105.264 4.732 A 8.922 8.922 0 0 0 105.102 4.348 A 7.733 7.733 0 0 0 104.238 2.871 A 5.795 5.795 0 0 0 104.141 2.745 A 5.051 5.051 0 0 0 102.803 1.553 A 3.309 3.309 0 0 0 101.848 1.164 A 4.201 4.201 0 0 0 100.869 1.055 A 3.846 3.846 0 0 0 98.789 1.641 Q 97.852 2.227 97.119 3.164 A 10.514 10.514 0 0 0 96.677 3.774 A 12.204 12.204 0 0 0 95.815 5.288 A 23.096 23.096 0 0 0 94.819 7.691 Q 94.395 8.906 94.102 10.049 Q 93.918 10.763 93.781 11.363 A 32.997 32.997 0 0 0 93.633 12.041 Q 93.281 13.652 93.018 15.278 A 20.557 20.557 0 0 0 92.754 18.574 Q 92.754 18.948 92.779 19.461 A 33.666 33.666 0 0 0 92.798 19.819 A 6.532 6.532 0 0 0 93.047 21.27 A 4.212 4.212 0 0 0 93.185 21.67 A 3.435 3.435 0 0 0 93.647 22.485 A 1.258 1.258 0 0 0 94.253 22.923 A 1.544 1.544 0 0 0 94.746 22.998 A 2.086 2.086 0 0 0 95.518 22.857 A 2.1 2.1 0 0 0 96.284 22.324 A 5.061 5.061 0 0 0 96.624 21.92 A 5.671 5.671 0 0 0 97.31 20.728 A 9.28 9.28 0 0 0 97.896 18.809 Q 98.018 18.171 98.085 17.665 A 11.397 11.397 0 0 0 98.145 17.139 Q 100.195 16.875 102.305 16.524 Q 102.327 17.029 102.357 17.798 A 660.754 660.754 0 0 1 102.378 18.34 A 13.143 13.143 0 0 0 102.656 20.581 A 6.168 6.168 0 0 0 102.875 21.362 A 4.792 4.792 0 0 0 103.433 22.471 A 1.723 1.723 0 0 0 104.381 23.169 A 2.346 2.346 0 0 0 105.059 23.262 A 2.335 2.335 0 0 0 105.384 23.24 A 1.665 1.665 0 0 0 106.377 22.749 A 3.408 3.408 0 0 0 106.748 22.294 A 4.036 4.036 0 0 0 107.168 21.489 Q 107.461 20.742 107.563 19.922 A 16.912 16.912 0 0 0 107.606 19.55 Q 107.637 19.251 107.652 18.988 Z M 12.656 11.953 L 12.656 12.686 A 48.809 48.809 0 0 1 12.597 14.098 A 59.15 59.15 0 0 1 12.539 15 Q 12.451 16.231 12.246 17.432 Q 12.041 18.633 11.631 19.732 A 6.782 6.782 0 0 1 10.694 21.457 A 6.338 6.338 0 0 1 10.518 21.68 Q 9.814 22.529 8.789 23.027 Q 7.764 23.526 6.299 23.526 Q 4.717 23.526 3.53 22.852 A 6.149 6.149 0 0 1 1.553 21.079 Q 0.762 19.981 0.381 18.618 Q 0 17.256 0 15.85 A 6.817 6.817 0 0 1 0.031 15.219 Q 0.064 14.866 0.132 14.473 Q 0.264 13.711 0.586 13.052 A 3.631 3.631 0 0 1 1.202 12.151 A 3.354 3.354 0 0 1 1.421 11.939 Q 1.934 11.485 2.725 11.485 A 2.447 2.447 0 0 1 3.214 11.53 Q 3.707 11.631 3.999 11.953 A 2.667 2.667 0 0 1 4.497 12.76 A 3.314 3.314 0 0 1 4.614 13.11 A 7.242 7.242 0 0 1 4.811 14.089 A 8.738 8.738 0 0 1 4.863 14.605 A 31.04 31.04 0 0 0 4.929 15.381 A 24.725 24.725 0 0 0 5.01 16.099 Q 5.083 16.672 5.248 17.093 A 2.704 2.704 0 0 0 5.317 17.256 Q 5.51 17.666 5.938 17.717 A 1.067 1.067 0 0 0 6.064 17.725 Q 6.632 17.725 6.976 17.275 A 1.49 1.49 0 0 0 7.031 17.197 A 3.388 3.388 0 0 0 7.404 16.444 A 4.296 4.296 0 0 0 7.544 15.952 A 9.098 9.098 0 0 0 7.749 14.502 A 36.935 36.935 0 0 0 7.768 14.156 Q 7.787 13.782 7.792 13.514 A 9.345 9.345 0 0 0 7.793 13.36 A 18.314 18.314 0 0 0 7.515 10.151 A 44.253 44.253 0 0 0 6.826 6.973 A 71.41 71.41 0 0 0 6.387 5.303 Q 6.152 4.453 6.152 3.604 A 3.074 3.074 0 0 1 6.233 2.882 A 2.184 2.184 0 0 1 6.68 1.978 A 1.695 1.695 0 0 1 7.613 1.416 A 2.655 2.655 0 0 1 8.232 1.348 A 3.064 3.064 0 0 1 8.698 1.381 Q 8.946 1.419 9.147 1.501 A 1.448 1.448 0 0 1 9.434 1.655 A 3.075 3.075 0 0 1 9.811 1.971 Q 9.984 2.139 10.156 2.349 A 5.92 5.92 0 0 1 10.313 2.549 A 8.445 8.445 0 0 1 11.184 4.025 A 9.996 9.996 0 0 1 11.44 4.629 Q 11.895 5.801 12.158 7.061 Q 12.422 8.32 12.539 9.595 Q 12.656 10.869 12.656 11.953 Z M 75.659 3.457 A 1.749 1.749 0 0 0 76.084 2.285 A 2.835 2.835 0 0 0 76.075 2.052 A 2.014 2.014 0 0 0 75.352 0.615 Q 74.619 0 73.594 0 A 4.634 4.634 0 0 0 72.206 0.218 A 6.045 6.045 0 0 0 70.986 0.762 A 9.897 9.897 0 0 0 68.613 2.681 A 10.67 10.67 0 0 0 66.885 5.23 A 7.355 7.355 0 0 0 66.424 6.422 A 5.327 5.327 0 0 0 66.211 7.881 A 3.555 3.555 0 0 0 66.356 8.883 A 4.326 4.326 0 0 0 66.812 9.902 Q 67.412 10.899 68.145 11.851 A 39.925 39.925 0 0 1 68.589 12.44 A 33.909 33.909 0 0 1 69.478 13.696 A 4.754 4.754 0 0 1 69.542 13.794 Q 70.078 14.637 70.078 15.44 A 2.227 2.227 0 0 1 69.756 16.597 A 5.47 5.47 0 0 1 69.608 16.832 A 6.138 6.138 0 0 1 68.965 17.637 A 13.148 13.148 0 0 1 68.662 17.948 A 15.341 15.341 0 0 1 67.925 18.633 A 12.647 12.647 0 0 0 67.775 18.766 A 11.33 11.33 0 0 0 66.885 19.658 A 7.052 7.052 0 0 0 66.763 19.799 A 6.261 6.261 0 0 0 66.094 20.757 Q 65.771 21.328 65.771 22.002 A 2.463 2.463 0 0 0 65.796 22.358 A 1.618 1.618 0 0 0 66.475 23.496 A 2.682 2.682 0 0 0 66.984 23.78 A 2.807 2.807 0 0 0 68.086 23.994 A 3.457 3.457 0 0 0 68.974 23.874 A 4.539 4.539 0 0 0 69.785 23.569 Q 70.664 23.145 71.47 22.456 A 11.25 11.25 0 0 0 71.682 22.27 A 12.389 12.389 0 0 0 72.993 20.889 A 13.947 13.947 0 0 0 73.004 20.875 A 12.762 12.762 0 0 0 74.238 19.072 A 12.028 12.028 0 0 0 74.496 18.59 A 10.297 10.297 0 0 0 75.073 17.212 A 7.705 7.705 0 0 0 75.152 16.963 Q 75.261 16.595 75.318 16.26 A 4.195 4.195 0 0 0 75.381 15.557 A 7.511 7.511 0 0 0 75.381 15.493 Q 75.372 14.478 75.088 13.711 A 7.547 7.547 0 0 0 74.923 13.302 A 6.401 6.401 0 0 0 74.37 12.29 A 7.693 7.693 0 0 0 73.433 11.148 A 23.783 23.783 0 0 1 73.06 10.767 A 19.902 19.902 0 0 1 72.495 10.151 A 7.214 7.214 0 0 1 72.242 9.848 A 6.116 6.116 0 0 1 71.777 9.17 A 2.086 2.086 0 0 1 71.626 8.856 A 2.222 2.222 0 0 1 71.484 8.057 A 3.154 3.154 0 0 1 71.499 7.746 A 2.557 2.557 0 0 1 71.777 6.797 A 3.988 3.988 0 0 1 72.539 5.786 A 6.994 6.994 0 0 1 73.564 4.966 Q 74.121 4.6 74.648 4.277 A 3.589 3.589 0 0 0 75.659 3.457 Z M 23.555 12.246 L 23.555 11.397 A 8.772 8.772 0 0 0 23.552 11.192 Q 23.545 10.88 23.517 10.364 A 63.631 63.631 0 0 0 23.511 10.239 A 12.939 12.939 0 0 0 23.32 8.628 Q 23.174 7.822 22.866 7.193 A 1.594 1.594 0 0 0 22.688 6.903 Q 22.563 6.745 22.412 6.66 A 0.764 0.764 0 0 0 22.031 6.563 A 0.476 0.476 0 0 0 21.772 6.644 Q 21.623 6.739 21.483 6.945 A 1.824 1.824 0 0 0 21.475 6.958 A 3.37 3.37 0 0 0 21.255 7.343 Q 21.155 7.548 21.065 7.789 A 6.241 6.241 0 0 0 21.006 7.954 A 11.062 11.062 0 0 0 20.789 8.672 A 14.203 14.203 0 0 0 20.64 9.287 A 33.505 33.505 0 0 0 20.423 10.353 A 29.154 29.154 0 0 0 20.361 10.693 A 22.852 22.852 0 0 0 20.262 11.315 Q 20.216 11.63 20.186 11.909 Q 20.132 12.408 20.102 12.647 A 14.354 14.354 0 0 1 20.098 12.686 A 39.782 39.782 0 0 0 23.555 12.246 Z M 59.238 12.246 L 59.238 11.397 A 8.772 8.772 0 0 0 59.236 11.192 Q 59.228 10.88 59.201 10.364 A 63.631 63.631 0 0 0 59.194 10.239 A 12.939 12.939 0 0 0 59.004 8.628 Q 58.857 7.822 58.55 7.193 A 1.594 1.594 0 0 0 58.372 6.903 Q 58.247 6.745 58.096 6.66 A 0.764 0.764 0 0 0 57.715 6.563 A 0.476 0.476 0 0 0 57.455 6.644 Q 57.307 6.739 57.167 6.945 A 1.824 1.824 0 0 0 57.158 6.958 A 3.37 3.37 0 0 0 56.939 7.343 Q 56.838 7.548 56.748 7.789 A 6.241 6.241 0 0 0 56.689 7.954 A 11.062 11.062 0 0 0 56.473 8.672 A 14.203 14.203 0 0 0 56.323 9.287 A 33.505 33.505 0 0 0 56.106 10.353 A 29.154 29.154 0 0 0 56.045 10.693 A 22.852 22.852 0 0 0 55.945 11.315 Q 55.899 11.63 55.869 11.909 Q 55.815 12.408 55.786 12.647 A 14.354 14.354 0 0 1 55.781 12.686 A 39.782 39.782 0 0 0 59.238 12.246 Z M 102.012 12.246 L 102.012 11.397 A 8.772 8.772 0 0 0 102.009 11.192 Q 102.002 10.88 101.974 10.364 A 63.631 63.631 0 0 0 101.968 10.239 A 12.939 12.939 0 0 0 101.777 8.628 Q 101.631 7.822 101.323 7.193 A 1.594 1.594 0 0 0 101.145 6.903 Q 101.02 6.745 100.869 6.66 A 0.764 0.764 0 0 0 100.488 6.563 A 0.476 0.476 0 0 0 100.229 6.644 Q 100.08 6.739 99.94 6.945 A 1.824 1.824 0 0 0 99.932 6.958 A 3.37 3.37 0 0 0 99.712 7.343 Q 99.612 7.548 99.522 7.789 A 6.241 6.241 0 0 0 99.463 7.954 A 11.062 11.062 0 0 0 99.246 8.672 A 14.203 14.203 0 0 0 99.097 9.287 A 33.505 33.505 0 0 0 98.88 10.353 A 29.154 29.154 0 0 0 98.818 10.693 A 22.852 22.852 0 0 0 98.719 11.315 Q 98.673 11.63 98.643 11.909 Q 98.589 12.408 98.56 12.647 A 14.354 14.354 0 0 1 98.555 12.686 A 39.782 39.782 0 0 0 102.012 12.246 Z M 118.447 7.852 A 2.636 2.636 0 0 0 118.413 7.411 Q 118.373 7.177 118.287 6.99 A 1.195 1.195 0 0 0 118.096 6.694 Q 117.821 6.385 117.277 6.318 A 2.637 2.637 0 0 0 116.953 6.299 A 3.584 3.584 0 0 0 115.954 6.445 A 4.134 4.134 0 0 0 115.767 6.504 A 8.065 8.065 0 0 0 115.022 6.798 A 6.752 6.752 0 0 0 114.668 6.973 A 72.85 72.85 0 0 1 114.762 10.657 A 71.391 71.391 0 0 1 114.756 11.572 A 9.22 9.22 0 0 0 115.655 11.217 A 10.816 10.816 0 0 0 116.016 11.045 A 5.71 5.71 0 0 0 117.202 10.254 A 4.349 4.349 0 0 0 118.096 9.199 A 2.469 2.469 0 0 0 118.43 8.177 A 3.071 3.071 0 0 0 118.447 7.852 Z" vector-effect="non-scaling-stroke"/></g></svg>